<?xml version="1.0" standalone="no"?>
<!DOCTYPE svg PUBLIC "-//W3C//DTD SVG 20010904//EN"
 "http://www.w3.org/TR/2001/REC-SVG-20010904/DTD/svg10.dtd">
<svg version="1.0" xmlns="http://www.w3.org/2000/svg"
 width="1198.000000pt" height="550.000000pt" viewBox="0 0 1198.000000 550.000000"
 preserveAspectRatio="xMidYMid meet">

<g transform="translate(0.000000,550.000000) scale(0.100000,-0.100000)"
fill="#000000" stroke="none">
<path d="M453 5402 l-321 -2 -7 -49 c-4 -27 -3 -69 0 -95 l7 -46 5853 0 5854
0 3 93 c2 50 2 93 1 95 -1 4 -10937 8 -11390 4z m11341 -87 c4 -20 4 -40 1
-45 -4 -7 -2019 -10 -5811 -10 l-5804 0 0 45 0 45 5804 0 5804 0 6 -35z"/>
<path d="M8171 4828 c-33 -30 -36 -30 -95 -22 -96 14 -363 11 -426 -5 -189
-47 -295 -142 -401 -356 -87 -176 -120 -377 -99 -595 14 -154 39 -252 91 -360
117 -244 290 -408 494 -465 74 -21 379 -31 620 -20 151 7 165 9 171 27 10 32
-4 66 -28 70 -13 2 -31 18 -42 38 -20 34 -21 49 -21 480 0 407 2 449 18 485
10 22 31 48 47 57 22 13 30 24 30 46 0 51 -6 52 -251 52 -247 0 -254 -1 -247
-57 2 -21 12 -32 40 -45 20 -10 47 -32 60 -50 l23 -33 3 -380 c2 -378 2 -380
-21 -420 -73 -130 -283 -108 -452 47 -186 171 -274 414 -261 723 9 225 63 381
167 485 146 146 370 143 530 -7 46 -43 119 -166 119 -199 0 -21 34 -17 55 6
18 20 18 27 -19 253 -39 233 -49 277 -63 277 -5 0 -23 -15 -42 -32z m48 -195
c13 -76 25 -151 28 -168 5 -25 -1 -19 -35 32 -48 72 -134 141 -220 174 -42 16
-79 22 -143 23 -80 0 -92 -2 -161 -36 -145 -72 -246 -213 -285 -398 -28 -132
-25 -435 4 -552 43 -166 126 -310 252 -432 155 -149 358 -189 468 -93 72 64
73 65 73 502 0 361 -2 393 -19 432 -11 23 -29 51 -40 62 l-21 21 165 0 164 0
-27 -52 -27 -52 -3 -441 c-4 -463 0 -520 40 -570 l21 -27 -334 4 c-370 5 -384
7 -509 75 -87 48 -220 184 -284 291 -96 160 -139 332 -138 552 0 212 44 373
142 525 92 140 189 208 342 239 92 19 279 21 377 4 61 -10 75 -10 103 4 18 9
36 17 39 17 3 1 16 -61 28 -136z"/>
<path d="M1983 4828 c-10 -13 -50 -232 -81 -441 -16 -106 -16 -109 3 -123 30
-22 43 -17 56 24 21 64 68 151 105 192 53 58 179 110 270 110 l25 0 -3 -703
c-3 -789 2 -736 -78 -777 -36 -18 -40 -24 -40 -59 0 -22 5 -40 13 -43 6 -2
124 -2 260 0 l248 4 -3 41 c-3 38 -7 44 -47 62 -24 12 -49 32 -57 46 -11 19
-13 154 -14 727 l0 702 44 0 c65 0 165 -35 216 -76 64 -50 115 -131 136 -214
20 -76 35 -87 69 -50 18 20 17 29 -29 298 -26 152 -51 281 -56 286 -5 5 -20 0
-36 -13 -26 -21 -33 -21 -455 -21 -405 0 -432 1 -481 20 -63 24 -54 23 -65 8z
m103 -80 c41 -9 866 -7 894 2 12 4 19 -20 36 -125 12 -71 25 -150 28 -175 l6
-45 -21 39 c-64 118 -221 206 -371 206 l-58 0 0 -739 c0 -467 4 -749 10 -766
5 -14 24 -39 42 -56 l32 -29 -177 0 c-97 0 -177 2 -177 5 0 2 11 15 24 28 13
14 29 42 35 63 7 26 11 278 11 768 l0 729 -65 -6 c-87 -8 -190 -40 -246 -75
-44 -28 -107 -110 -129 -167 -18 -49 -18 -23 0 75 10 52 25 139 35 193 15 84
20 97 34 91 9 -3 34 -11 57 -16z"/>
<path d="M1445 4800 c-9 -17 -31 -38 -50 -47 -33 -16 -40 -15 -152 11 -170 39
-304 51 -412 37 -219 -28 -420 -141 -504 -283 -66 -114 -105 -312 -87 -450 17
-133 66 -235 153 -314 127 -117 324 -228 597 -337 305 -122 365 -159 416 -259
73 -142 70 -313 -6 -473 -41 -86 -97 -134 -200 -174 -119 -45 -170 -54 -278
-49 -84 5 -101 9 -176 47 -96 47 -166 106 -248 209 -111 140 -184 294 -217
457 -21 104 -35 114 -88 68 l-33 -28 81 -510 c51 -323 86 -515 95 -524 12 -13
19 -9 54 29 l40 43 79 -6 c54 -4 119 -19 198 -46 199 -68 363 -73 527 -15 284
99 485 335 578 679 30 108 31 326 4 429 -45 168 -119 297 -233 407 -105 101
-176 137 -498 249 -382 133 -507 219 -491 337 12 88 54 143 146 189 48 25 68
29 165 32 97 3 119 1 183 -22 102 -34 175 -80 253 -157 73 -73 120 -157 158
-286 24 -81 33 -87 89 -53 41 25 41 21 -3 301 -62 399 -81 515 -89 527 -13 21
-35 13 -51 -18z m-240 -114 c115 -30 163 -32 211 -10 19 9 36 15 38 13 6 -7
86 -522 82 -526 -2 -3 -9 12 -16 32 -22 65 -110 184 -179 241 -84 70 -204 130
-301 150 -132 28 -285 3 -382 -61 -114 -76 -164 -280 -94 -385 56 -85 208
-167 486 -263 247 -86 332 -122 412 -174 154 -101 261 -271 304 -483 31 -156
1 -341 -86 -527 -137 -293 -386 -464 -674 -463 -116 1 -220 20 -321 58 -44 17
-112 37 -152 44 -62 10 -77 10 -114 -5 -24 -9 -46 -14 -50 -9 -6 7 -88 534
-96 617 -4 38 -2 36 32 -34 84 -175 247 -373 366 -444 145 -86 304 -104 472
-53 177 53 245 106 307 240 89 190 92 393 8 563 -44 90 -113 150 -224 196
-366 148 -473 196 -637 290 -175 98 -248 179 -283 311 -31 116 -10 301 49 426
61 131 207 234 391 276 100 22 327 13 451 -20z"/>
<path d="M9620 4810 c-9 -6 -198 -10 -481 -10 -509 0 -494 2 -487 -57 2 -22
13 -33 53 -53 90 -45 85 4 85 -788 0 -752 1 -736 -55 -780 -15 -12 -38 -22
-51 -22 -22 0 -24 -4 -24 -44 0 -37 4 -46 22 -52 12 -3 224 -5 472 -3 428 4
454 3 494 -15 25 -12 46 -16 51 -10 4 5 25 74 45 154 20 80 58 230 86 335 l50
190 -25 24 c-31 32 -45 20 -74 -58 -55 -151 -182 -290 -336 -367 -159 -78
-289 -82 -362 -9 l-33 33 0 422 0 423 93 -6 c184 -11 256 -67 292 -223 9 -38
20 -73 24 -77 5 -5 20 2 34 15 l25 23 -40 310 c-22 171 -43 314 -48 319 -17
17 -60 -22 -60 -54 0 -84 -49 -110 -210 -110 l-110 0 0 111 c0 61 5 119 11
131 15 28 86 58 139 58 210 0 436 -167 475 -350 4 -19 12 -38 18 -42 18 -11
57 22 57 48 0 30 -89 523 -96 535 -7 11 -15 11 -34 -1z m28 -192 c12 -68 25
-145 28 -173 l6 -50 -29 45 c-66 102 -216 195 -358 225 -90 18 -146 14 -211
-16 -68 -32 -76 -58 -72 -234 l3 -150 145 0 c163 0 195 10 230 68 11 18 20 27
20 21 0 -7 9 -79 20 -160 26 -196 26 -197 -9 -142 -56 88 -136 121 -300 122
l-106 1 -3 -460 c-2 -530 -7 -501 93 -550 52 -26 62 -27 148 -23 73 4 107 11
164 35 139 59 285 187 350 308 18 33 33 54 33 47 0 -12 -119 -494 -124 -499
-1 -1 -20 4 -41 12 -32 11 -124 14 -457 15 -272 0 -418 4 -418 10 0 6 4 10 9
10 5 0 21 24 35 53 l26 52 2 700 c2 385 -1 717 -5 738 -5 21 -24 56 -44 78
l-35 39 439 0 440 0 21 -122z"/>
<path d="M3134 4786 c-3 -8 -4 -29 -2 -47 2 -27 8 -34 35 -41 17 -5 41 -20 52
-34 45 -57 46 -73 46 -779 0 -656 0 -671 -21 -710 -14 -28 -34 -47 -67 -64
-44 -21 -47 -26 -47 -61 0 -25 5 -40 16 -44 20 -8 343 -6 444 3 62 5 75 9 78
24 6 30 -7 67 -24 67 -30 0 -70 29 -92 68 -21 39 -22 47 -22 356 l0 316 96 45
c54 25 100 45 104 45 3 0 24 -37 45 -82 21 -46 76 -159 122 -253 102 -208 133
-290 140 -376 6 -75 -5 -106 -43 -115 -23 -6 -25 -11 -22 -51 l3 -45 285 -5
c157 -3 336 -2 398 2 106 7 112 8 118 30 9 37 -3 60 -38 70 -70 21 -94 102
-63 215 40 153 123 441 127 445 10 11 115 -18 178 -48 95 -46 225 -178 274
-277 74 -153 73 -235 -5 -314 -50 -51 -62 -89 -37 -114 14 -14 214 -16 391 -5
l107 6 0 38 c0 32 -5 40 -27 51 -46 22 -77 105 -177 473 -52 193 -134 494
-182 670 -99 364 -106 414 -61 449 24 19 28 29 25 62 l-3 39 -240 0 -240 0 -3
-39 c-3 -32 1 -43 20 -57 38 -29 28 -92 -72 -439 -50 -173 -141 -488 -202
-700 -60 -212 -117 -398 -125 -413 -33 -65 -71 -14 -142 195 -128 374 -180
498 -274 642 l-45 69 50 38 c170 128 259 368 197 534 -27 71 -59 109 -123 143
l-51 27 -448 3 c-384 3 -448 1 -453 -12z m952 -81 c84 -52 117 -143 96 -258
-24 -128 -109 -258 -211 -324 -33 -21 -62 -43 -65 -50 -3 -6 17 -44 43 -85
112 -172 158 -275 274 -615 37 -106 75 -209 85 -230 14 -27 17 -45 11 -60 -8
-22 -13 -23 -139 -23 -71 0 -130 2 -130 5 0 4 7 20 16 37 25 48 20 148 -11
247 -23 73 -281 611 -305 635 -10 10 -218 -76 -252 -103 -19 -16 -19 -28 -16
-356 3 -335 3 -341 27 -388 13 -27 30 -51 37 -54 42 -16 -4 -23 -151 -23 -91
0 -165 3 -165 6 0 3 11 19 25 36 55 66 56 75 53 814 -3 737 -2 715 -59 795
l-21 30 404 -3 405 -3 49 -30z m1118 0 c-7 -19 -14 -53 -14 -75 0 -22 41 -192
91 -378 50 -185 108 -402 129 -482 132 -499 164 -610 190 -657 l28 -53 -179 0
-180 0 29 38 c38 48 52 92 52 162 0 150 -98 321 -256 447 -76 62 -138 91 -232
110 -62 13 -76 13 -86 2 -22 -24 -157 -539 -156 -597 0 -51 26 -122 50 -137 5
-3 10 -10 10 -16 0 -12 -227 -12 -235 1 -3 5 1 20 9 32 8 13 21 48 30 78 8 30
98 343 200 695 101 352 189 667 196 699 11 55 9 111 -6 150 -5 14 13 16 169
16 l176 0 -15 -35z"/>
<path d="M3652 4659 c-61 -10 -118 -37 -147 -69 -19 -21 -20 -36 -20 -324 0
-349 -7 -332 107 -275 172 86 349 233 390 325 28 64 36 176 15 225 -37 90
-195 144 -345 118z m234 -83 c67 -31 89 -68 81 -142 -10 -96 -63 -171 -187
-264 -65 -47 -225 -140 -244 -140 -3 0 -6 117 -6 259 l0 259 34 22 c76 46 228
49 322 6z"/>
<path d="M4976 4581 c-4 -5 -46 -152 -95 -328 -62 -223 -86 -322 -79 -330 6
-7 27 -13 47 -13 57 0 145 -24 193 -53 25 -14 70 -54 102 -87 91 -99 95 -76
32 166 -24 93 -70 268 -100 389 -31 121 -61 230 -66 243 -10 23 -25 29 -34 13z
m47 -223 c115 -438 134 -518 124 -510 -7 5 -30 23 -52 40 -45 36 -125 66 -198
77 -38 6 -48 11 -44 24 45 171 133 471 137 471 3 0 18 -46 33 -102z"/>
<path d="M5734 4786 c-3 -8 -4 -29 -2 -47 2 -26 9 -34 35 -43 18 -6 43 -21 55
-34 l23 -23 0 -733 0 -734 -25 -27 c-14 -15 -40 -33 -57 -40 -29 -12 -33 -18
-33 -54 0 -30 4 -41 18 -43 16 -4 231 -4 360 0 l62 2 0 40 c0 36 -4 42 -37 60
-104 55 -98 12 -101 650 -2 305 -2 598 0 650 l3 95 275 -304 c395 -436 391
-431 401 -458 5 -13 9 -148 9 -300 l0 -275 -34 -34 c-22 -22 -44 -34 -61 -34
-25 0 -26 -2 -23 -47 l3 -48 125 -3 c69 -1 163 1 210 5 l85 8 0 39 c0 35 -3
39 -35 50 -22 7 -41 24 -55 46 -20 34 -20 50 -23 754 -3 808 -8 751 74 787 41
19 44 23 44 58 0 26 -5 41 -16 45 -9 3 -107 6 -220 6 l-204 0 -6 -25 c-12 -48
2 -70 51 -83 86 -23 85 -21 85 -274 l0 -223 -29 30 c-15 17 -84 91 -151 165
-68 74 -146 160 -173 190 -112 122 -103 109 -83 123 13 9 17 23 14 52 l-3 40
-278 3 c-232 2 -278 0 -283 -12z m492 -85 c-1 -47 -17 -27 284 -355 124 -135
230 -246 237 -246 21 0 23 34 18 298 -5 271 -8 291 -49 324 -20 17 -16 18 102
18 l124 0 -31 -31 c-17 -17 -34 -43 -39 -57 -4 -15 -7 -349 -7 -742 0 -758 0
-755 47 -822 l19 -28 -110 0 c-61 0 -111 3 -111 6 0 3 9 19 20 34 31 44 40
116 40 334 0 206 -11 320 -33 361 -22 43 -709 790 -726 790 -15 0 -16 -58 -16
-700 0 -772 -3 -741 64 -795 l36 -30 -145 0 -144 0 32 33 c18 18 38 49 44 68
15 43 23 1280 10 1418 -9 85 -12 95 -43 127 l-33 34 206 0 205 0 -1 -39z"/>
<path d="M9936 4784 c-21 -21 -21 -97 0 -118 8 -9 25 -16 37 -16 60 0 115 -71
137 -178 7 -30 10 -392 8 -1017 l-3 -970 -22 -41 c-29 -55 -87 -104 -121 -104
-39 0 -52 -17 -52 -70 0 -25 5 -51 12 -58 9 -9 106 -12 374 -12 199 0 369 3
378 6 12 5 16 21 16 65 0 56 -1 59 -27 65 -16 3 -36 8 -46 11 -33 9 -80 57
-103 108 l-24 50 0 451 0 452 146 67 c80 37 150 63 154 58 4 -4 94 -186 199
-403 207 -431 242 -522 243 -652 2 -89 -14 -123 -65 -136 -32 -8 -32 -8 -32
-73 l0 -64 330 -3 c368 -3 355 -5 355 66 0 43 -16 72 -40 72 -31 0 -75 46
-108 112 -17 35 -65 164 -107 288 -164 479 -242 662 -375 872 l-68 107 41 27
c111 73 211 195 278 338 118 251 81 515 -89 637 -98 69 -86 68 -784 74 -563 5
-628 4 -642 -11z m1336 -101 c181 -83 234 -284 139 -529 -55 -140 -181 -290
-300 -356 -49 -27 -61 -38 -61 -58 0 -14 33 -75 76 -140 147 -225 242 -444
394 -905 75 -229 119 -328 167 -377 l37 -38 -237 0 c-130 0 -237 2 -237 5 0 3
9 18 20 33 53 72 49 225 -11 403 -37 111 -420 893 -441 901 -13 5 -306 -118
-360 -151 -17 -10 -18 -45 -18 -490 0 -456 1 -482 21 -546 15 -51 31 -78 64
-111 l44 -44 -255 0 -256 0 36 42 c20 23 46 67 58 97 l23 56 3 988 c2 852 0
996 -13 1052 -17 75 -46 137 -81 172 l-24 24 583 -3 c572 -3 583 -3 629 -25z"/>
<path d="M10660 4590 c-72 -15 -172 -70 -198 -109 l-22 -34 2 -431 c3 -501 -8
-461 121 -402 180 82 390 227 497 342 99 108 140 209 140 349 0 145 -46 206
-197 263 -55 20 -90 25 -183 28 -63 2 -135 -1 -160 -6z m281 -86 c83 -19 157
-65 181 -114 22 -44 23 -120 2 -191 -37 -127 -131 -228 -339 -369 -75 -51
-226 -134 -262 -145 l-23 -6 0 369 0 370 34 30 c30 26 87 51 151 65 47 11 192
6 256 -9z"/>
<path d="M8173 2220 c-39 -47 -68 -54 -173 -40 -122 16 -363 9 -445 -14 -147
-41 -256 -120 -344 -252 -178 -265 -233 -601 -157 -956 75 -356 319 -646 619
-736 69 -20 829 -31 853 -11 8 6 14 27 14 46 0 29 -5 36 -32 48 -71 30 -75 69
-74 625 2 426 2 436 24 480 12 25 35 53 52 62 24 14 30 24 30 52 0 25 -6 38
-19 46 -24 12 -490 14 -509 1 -9 -5 -12 -24 -10 -52 2 -35 7 -45 23 -48 36 -6
77 -43 96 -85 17 -38 19 -72 19 -436 0 -439 -1 -446 -69 -503 -109 -91 -295
-48 -459 107 -218 206 -315 500 -283 851 13 134 20 169 58 269 53 140 155 252
270 296 80 31 196 31 276 0 124 -47 238 -163 274 -278 10 -30 23 -56 30 -59
22 -9 62 30 63 60 0 55 -82 522 -95 536 -11 11 -16 10 -32 -9z m31 -247 c15
-93 30 -177 33 -188 3 -11 -9 3 -27 30 -75 118 -178 193 -311 226 -72 19 -90
20 -156 10 -109 -16 -175 -51 -264 -140 -127 -127 -172 -246 -191 -510 -29
-394 65 -680 297 -900 180 -171 412 -212 528 -93 61 62 67 90 73 310 3 108 2
305 -3 437 -10 254 -14 276 -66 333 l-20 22 176 0 c97 0 177 -2 177 -5 0 -3
-7 -17 -16 -31 -39 -59 -44 -122 -44 -594 0 -473 6 -547 44 -589 9 -10 16 -21
16 -24 0 -4 -146 -7 -325 -7 -376 0 -431 7 -565 73 -160 78 -336 287 -415 492
-60 157 -68 207 -69 435 0 191 2 212 26 302 28 103 85 225 147 317 79 116 182
187 326 227 87 23 340 30 428 11 69 -15 128 -10 150 12 6 6 14 11 17 11 4 0
19 -75 34 -167z"/>
<path d="M1885 2188 c-11 -49 -36 -182 -71 -378 l-36 -204 27 -24 c15 -12 32
-21 37 -20 5 2 23 39 40 82 17 43 49 106 72 140 36 52 53 66 117 98 66 34 210
70 224 57 10 -11 7 -1525 -3 -1550 -11 -28 -39 -52 -92 -81 -28 -16 -31 -21
-28 -60 l3 -43 274 -3 c199 -2 277 1 288 9 9 8 13 26 11 48 -3 32 -9 39 -53
62 -91 47 -85 -13 -83 859 l3 764 49 -3 c113 -7 236 -65 296 -141 38 -49 76
-131 92 -199 14 -63 31 -73 65 -38 l26 25 -54 307 c-35 200 -59 309 -67 312
-7 3 -22 -3 -33 -13 -20 -18 -48 -19 -490 -22 -448 -2 -471 -2 -528 18 -76 25
-79 25 -86 -2z m595 -81 c353 -1 481 2 497 11 27 15 23 26 58 -188 32 -198 32
-207 -4 -145 -75 132 -246 225 -411 225 -43 0 -50 -3 -55 -22 -3 -13 -4 -381
-2 -818 2 -865 -1 -812 60 -877 l31 -33 -197 0 -198 0 35 35 c24 24 38 49 46
87 8 38 10 279 8 838 l-3 785 -58 -2 c-131 -4 -283 -65 -342 -137 -19 -24 -49
-68 -66 -97 -19 -33 -29 -44 -26 -29 3 14 20 109 37 212 l33 186 41 -15 c35
-13 114 -16 516 -16z"/>
<path d="M9636 2165 c-29 -44 -55 -47 -173 -19 -211 51 -395 29 -539 -64 -136
-88 -197 -214 -197 -407 -1 -207 75 -306 343 -451 57 -31 155 -76 216 -100
148 -57 256 -110 282 -137 95 -102 108 -306 28 -440 -35 -58 -73 -87 -154
-117 -127 -48 -240 -47 -339 2 -98 48 -221 187 -283 320 -33 71 -70 189 -70
226 0 31 -23 37 -55 16 -26 -17 -27 -21 -21 -75 4 -32 16 -111 27 -176 11 -65
36 -214 54 -332 19 -118 39 -219 45 -225 7 -7 20 0 41 23 30 33 31 33 91 27
33 -4 102 -21 152 -38 68 -23 115 -33 185 -36 116 -6 182 8 286 59 168 82 280
222 350 439 23 71 28 104 29 200 1 136 -12 195 -66 309 -30 63 -57 100 -108
151 -81 81 -161 123 -384 200 -235 81 -349 145 -376 210 -26 63 20 148 105
193 34 19 56 22 145 22 97 0 110 -2 173 -32 76 -36 166 -116 204 -181 14 -24
36 -76 48 -115 24 -80 39 -91 78 -55 l25 23 -46 290 c-26 160 -51 296 -55 303
-12 18 -23 15 -41 -13z m-190 -80 c112 -23 127 -24 164 -11 22 7 40 12 40 10
0 -2 14 -88 30 -190 17 -103 29 -189 26 -191 -2 -2 -15 17 -27 44 -58 119
-224 239 -367 265 -127 23 -262 -21 -319 -105 -60 -90 -63 -190 -7 -257 32
-37 139 -102 214 -129 30 -11 120 -43 200 -72 197 -70 254 -100 326 -174 152
-155 204 -388 133 -599 -43 -129 -91 -210 -174 -292 -168 -167 -365 -205 -620
-119 -109 36 -179 43 -226 21 -13 -6 -18 1 -23 36 -14 86 -66 433 -66 443 0 6
19 -24 41 -65 156 -288 364 -413 589 -356 195 50 266 127 307 332 14 72 14 94
4 153 -22 123 -89 230 -165 261 -11 5 -111 47 -221 93 -198 82 -363 170 -430
228 -19 17 -49 60 -67 96 -26 53 -32 80 -36 146 -9 187 68 328 221 400 130 62
259 71 453 32z"/>
<path d="M3164 2156 c-3 -8 -4 -31 -2 -52 2 -30 8 -40 23 -42 48 -7 78 -27 91
-58 12 -27 14 -172 14 -803 0 -520 -3 -779 -11 -798 -16 -43 -59 -82 -102 -94
-38 -10 -38 -10 -35 -57 l3 -47 290 0 290 0 3 47 c3 45 1 48 -25 54 -46 11
-80 41 -105 92 l-23 47 -3 487 -3 487 228 3 c125 2 263 2 306 0 l77 -3 0 -501
c0 -484 -1 -503 -20 -544 -20 -41 -41 -55 -103 -69 -27 -5 -28 -8 -25 -53 l3
-47 260 -3 c143 -1 270 0 283 3 18 5 22 12 22 48 0 41 -2 44 -46 65 -36 18
-50 32 -66 70 -21 46 -21 58 -22 819 -1 767 -1 772 20 800 11 16 40 35 65 43
24 8 50 19 57 23 15 10 16 69 0 85 -17 17 -539 17 -556 0 -7 -7 -12 -26 -12
-43 0 -39 16 -55 53 -55 18 0 39 -10 58 -29 l29 -29 0 -181 0 -181 -302 2
-303 3 -3 150 c-2 87 1 165 8 187 11 39 60 78 98 78 42 0 52 11 52 55 0 30 -5
45 -16 49 -9 3 -135 6 -280 6 -217 0 -266 -3 -270 -14z m436 -57 c0 -3 -9 -14
-21 -25 -45 -41 -49 -62 -49 -277 0 -178 2 -206 16 -211 9 -3 161 -6 338 -6
237 0 325 3 334 12 9 9 12 67 12 202 -1 195 -9 246 -44 285 -9 10 -16 21 -16
24 0 4 77 7 171 7 l170 0 -34 -33 c-21 -19 -40 -50 -46 -74 -8 -30 -11 -267
-9 -825 3 -730 4 -786 21 -823 10 -22 30 -52 44 -67 l27 -28 -183 0 -183 0 26
30 c54 65 56 88 56 656 0 407 -3 525 -12 531 -15 9 -630 17 -665 8 l-24 -6 3
-537 c3 -595 1 -577 71 -649 l31 -33 -198 0 -199 0 26 24 c14 13 36 43 49 67
l23 44 0 800 0 800 -26 52 -26 52 61 3 c104 5 256 3 256 -3z"/>
<path d="M4772 2158 c-7 -7 -12 -26 -12 -43 0 -37 15 -55 46 -55 26 0 70 -49
82 -88 4 -15 7 -373 7 -797 0 -738 -1 -772 -19 -808 -19 -39 -36 -50 -89 -62
-27 -5 -28 -8 -25 -53 l3 -47 290 0 290 0 3 48 c3 46 2 47 -29 54 -42 8 -92
60 -107 110 -17 57 -17 1508 0 1565 13 44 49 78 82 78 12 0 27 5 34 12 16 16
16 70 0 86 -17 17 -539 17 -556 0z m341 -54 l106 -7 -24 -29 c-13 -16 -28 -45
-32 -66 -4 -20 -8 -383 -8 -807 0 -843 -2 -807 61 -890 l34 -45 -191 0 -191 0
25 30 c14 16 30 52 36 80 7 34 11 301 11 814 0 827 0 819 -55 891 l-26 35 74
0 c41 0 122 -3 180 -6z"/>
<path d="M5481 2156 c-7 -8 -11 -30 -9 -48 3 -28 10 -36 50 -55 89 -42 83 19
86 -808 2 -401 0 -758 -3 -793 -8 -72 -35 -112 -94 -140 -29 -14 -37 -23 -39
-50 -6 -61 -2 -62 237 -62 244 0 255 3 249 60 -3 29 -11 38 -61 68 -42 24 -63
44 -73 68 -12 28 -14 149 -12 738 l3 705 120 -133 c66 -73 224 -246 350 -385
127 -139 239 -267 250 -284 19 -30 20 -49 20 -350 l0 -319 -33 -29 c-18 -16
-43 -29 -55 -29 -31 0 -47 -18 -47 -55 0 -17 5 -36 12 -43 15 -15 420 -17 449
-2 12 7 19 21 19 38 0 35 -9 48 -40 57 -38 11 -69 45 -79 84 -5 20 -11 385
-13 811 -3 879 -10 810 80 852 40 20 47 28 50 56 6 61 2 62 -238 62 -120 0
-225 -3 -234 -6 -11 -4 -16 -19 -16 -49 l0 -44 53 -15 c100 -29 97 -20 97
-304 l0 -247 -29 30 c-55 58 -367 401 -416 459 -43 51 -47 59 -32 67 20 12 24
78 5 97 -9 9 -90 12 -304 12 -241 0 -294 -2 -303 -14z m472 -52 c73 -7 75 -7
65 -29 -12 -26 15 -87 52 -120 13 -11 133 -140 267 -287 134 -148 248 -268
252 -268 5 0 12 7 15 16 8 21 8 553 0 593 -4 17 -20 46 -35 62 -16 17 -29 33
-29 35 0 2 62 4 138 4 l137 0 -32 -25 c-66 -52 -64 -24 -61 -905 3 -740 4
-798 21 -835 10 -22 28 -50 39 -62 l21 -23 -131 0 -131 0 32 52 32 51 3 294
c3 322 -2 375 -46 434 -15 20 -117 135 -227 256 -110 120 -276 303 -369 407
-106 117 -175 186 -185 184 -14 -3 -16 -78 -19 -753 -2 -850 -4 -826 70 -889
l42 -36 -158 0 -157 0 35 35 c62 62 61 44 61 890 0 424 -4 787 -8 808 -4 20
-22 53 -38 72 l-30 34 68 4 c135 7 231 7 306 1z"/>
<path d="M125 1636 c-4 -30 -4 -73 0 -95 l7 -41 709 0 709 0 0 95 0 95 -709 0
-710 0 -6 -54z m1365 -41 l0 -45 -655 0 -655 0 0 45 0 45 655 0 655 0 0 -45z"/>
<path d="M10060 1595 l0 -95 890 0 890 0 0 95 0 95 -890 0 -890 0 0 -95z
m1738 -2 l3 -43 -845 0 -846 0 0 38 c0 21 3 42 7 45 3 4 383 6 842 5 l836 -3
3 -42z"/>
</g>
</svg>
