<?xml version="1.0" encoding="UTF-8" standalone="no"?>
<svg
   xmlns:dc="http://purl.org/dc/elements/1.1/"
   xmlns:cc="http://creativecommons.org/ns#"
   xmlns:rdf="http://www.w3.org/1999/02/22-rdf-syntax-ns#"
   xmlns:svg="http://www.w3.org/2000/svg"
   xmlns="http://www.w3.org/2000/svg"
   viewBox="0 0 1124 609.33331"
   height="609.33331"
   width="1124"
   xml:space="preserve"
   id="svg2"
   version="1.1"><metadata
     id="metadata8"><rdf:RDF><cc:Work
         rdf:about=""><dc:format>image/svg+xml</dc:format><dc:type
           rdf:resource="http://purl.org/dc/dcmitype/StillImage" /></cc:Work></rdf:RDF></metadata><defs
     id="defs6" /><g
     transform="matrix(1.3333333,0,0,-1.3333333,0,609.33333)"
     id="g10"><g
       transform="scale(0.1)"
       id="g12"><path
         id="path14"
         style="fill:#000000;fill-opacity:1;fill-rule:evenodd;stroke:none"
         d="M 10,4565.11 H 8420 V 5.09766 H 10 V 4565.11" /><path
         id="path16"
         style="fill:none;stroke:#231f20;stroke-width:5.66930008;stroke-linecap:butt;stroke-linejoin:miter;stroke-miterlimit:22.92560005;stroke-dasharray:none;stroke-opacity:1"
         d="M 10,4565.11 H 8420 V 5.09766 H 10 Z" /><path
         id="path18"
         style="fill:#ed1c24;fill-opacity:1;fill-rule:evenodd;stroke:none"
         d="M 1183.1,3414.62 H 7258.49 V 3289.93 H 1183.1 Z m 34.55,-34.55 v -55.59 h 6006.29 v 55.59 z M 6230.6,1920.75 h 1027.89 v 0 -124.7 h -1027.89 -0.01 v 124.7 z m 34.55,-90.14 h 958.79 v 55.58 h -958.79 z m -5082.05,90.14 h 893.49 v -124.7 H 1183.1 v 34.56 55.58 z m 858.93,-34.56 h -824.38 v -55.58 h 824.38 z m 497.03,1115.06 -19.6,121.16 c -8.78,-2.73 -18.03,-4.96 -26.98,-5.45 -7.29,-0.41 -14.6,-0.56 -21.9,-0.56 h -465.79 c -4.85,0 -10.22,0.61 -15.06,1.01 -4.23,0.35 -8.49,0.89 -12.69,1.72 l -19.23,-110.56 c 1.32,1.43 2.66,2.82 4.03,4.19 0.2,0.2 0.38,0.38 0.59,0.58 22.91,21.87 49.39,43.1 78.34,56.36 28.36,12.98 59.67,17.71 90.66,17.71 19.03,0 34.55,-15.52 34.55,-34.55 v -630.4 c 0,-20.04 -0.23,-42.06 -3.4,-61.87 -3.26,-20.38 -13.21,-38.32 -26.79,-53.63 -1.84,-2.08 -3.74,-4.11 -5.67,-6.08 h 234.11 c -3.65,4.23 -7.03,8.72 -10.15,13.4 -11.66,17.47 -18.95,37 -22.37,57.7 -3.32,20.17 -4.54,40.8 -4.54,61.22 v 17.61 l -0.73,602.01 c -0.01,9.52 3.38,17.72 10.11,24.46 6.72,6.74 14.92,10.13 24.44,10.13 39.14,0 76.98,-8.33 111.01,-28.07 25.78,-14.96 47.95,-35.28 67.06,-58.09 z m 1646.86,-700.37 c -4.32,5.69 -7.93,11.94 -10.87,18.63 -5.32,12.09 -9.06,24.77 -11.23,37.8 -2.36,14.19 -3.05,28.87 -3.03,43.23 l 0.75,591.4 c 0.02,15.27 9.5,28.22 24.04,32.87 14.55,4.65 29.78,-0.42 38.64,-12.85 l 339.98,-476.65 c 15.57,-21.83 32.48,-46.79 43.39,-71.35 12.29,-27.69 18.48,-56.96 18.48,-87.3 0,-27.63 -5.57,-54.99 -20.62,-75.78 h 85.72 c -4.24,5.23 -7.91,10.95 -10.99,17.12 -6.95,13.92 -10.83,29.09 -12.64,44.5 -1.44,12.28 -2.46,24.76 -2.46,37.13 v 588.01 c 0,19.41 1.37,38.88 3.55,58.16 2.61,23.09 9.29,45.52 22.16,65.03 1.25,1.9 2.55,3.76 3.91,5.57 h -84.17 c 3.19,-3.85 6.1,-7.95 8.76,-12.26 7.37,-11.95 13.31,-25.05 15.82,-38.94 2.46,-13.62 2.81,-28.56 2.81,-42.38 v -210.34 c 0,-15.46 -9.72,-28.57 -24.52,-33.06 -14.8,-4.49 -30.17,1.01 -38.76,13.87 l -148.85,222.7 c -0.11,0.17 -0.2,0.31 -0.32,0.49 -4.86,7.56 -9.74,15.67 -12.91,23.27 -5.78,13.05 -9.62,27.04 -9.62,41.39 0,12.6 3.69,24.55 10.26,35.26 h -302.9 c 0.99,-1.19 1.96,-2.4 2.91,-3.64 11.08,-14.5 15.17,-34.55 17.23,-52.32 2.22,-19.19 3.2,-38.51 3.2,-57.82 v -563.26 c 0,-29.07 -1.92,-58.5 -7.26,-87.11 -3.3,-17.68 -8.84,-36.3 -19.24,-51.37 z m -152.83,0 c -6.7,8.05 -12.22,17.34 -16.89,26.36 -0.16,0.31 -0.29,0.57 -0.45,0.88 -2.67,5.54 -5.37,11.08 -8.07,16.61 -0.98,1.99 -1.65,3.75 -2.25,5.89 l -192.52,689.49 c -1.37,4.9 -2.7,10.1 -4.3,14.93 -0.44,1.17 -0.78,2.27 -1.1,3.55 -2.01,7.95 -3.28,16.14 -3.28,24.36 0,9.5 1.98,18.77 5.66,27.51 0.1,0.23 0.18,0.42 0.28,0.65 0.81,1.83 1.7,3.59 2.64,5.29 h -223.63 c 5.61,-10.92 7.94,-22.98 7.94,-35.26 0,-9.72 -1.63,-19.38 -4.24,-28.72 -2.18,-7.81 -4.62,-15.55 -7.08,-22.66 l -204.95,-627.69 c -5.46,-17.89 -12.27,-36.74 -21.77,-52.92 -2.06,-3.5 -4.29,-6.9 -6.63,-10.21 -7.46,-10.53 -19.17,-15.81 -32,-14.4 -12.82,1.41 -23.11,9.1 -28.09,21.01 -6.53,15.58 -12.42,31.43 -17.84,47.43 -10.92,32.22 -22.02,64.47 -33.9,96.35 -6.37,17.1 -13.18,35.71 -21.32,52.04 -18.98,38.03 -38.88,75.67 -60.1,112.5 -21.19,36.77 -43.91,72.72 -67.36,108.08 -7.22,10.88 -7.83,23.93 -1.66,35.44 4.88,9.07 12.88,15.17 22.46,17.33 9.41,4.55 23.15,14.66 31.15,20.25 26.8,18.72 51.75,40.92 71.26,67.27 22.57,30.47 35.42,64.14 35.42,102.17 0,6.42 -0.74,13.4 -1.26,19.14 -3.14,28.22 -14.15,50.9 -37.64,67.29 -30.37,21.18 -76.52,25.56 -112.41,25.56 h -450.05 c 3.44,-4.99 6.44,-10.31 9.09,-15.79 10.47,-21.7 13.42,-53.57 14.85,-77.4 0.88,-14.73 0.83,-29.76 0.79,-44.52 l -1.46,-578.23 c -0.05,-18.58 -1.06,-38.39 -5.41,-56.5 -3.9,-16.3 -11.7,-30.75 -22.67,-43.08 h 215.45 c -3.31,4.04 -6.38,8.26 -9.23,12.51 -8.98,13.41 -14.59,28.52 -17.5,44.34 -3.15,17.13 -3.91,35.27 -3.91,52.65 v 249.21 c 0,12.82 6.43,23.82 17.6,30.11 l 39.25,22.1 c 16.19,9.11 36.7,3.79 46.41,-12.04 15,-24.46 29.95,-48.96 44.86,-73.46 14.06,-23.1 27.67,-46.84 39.16,-71.32 13.83,-29.46 27.57,-58.99 40.88,-88.69 7.45,-16.65 15.18,-33.7 21.62,-50.77 9.09,-24.03 18.54,-53.48 18.54,-79.37 0,-12.54 -2.4,-24.83 -8.31,-35.27 h 347.07 c -3.59,4.71 -6.8,9.71 -9.69,14.89 -0.14,0.24 -0.25,0.45 -0.38,0.69 -6.57,12.45 -7.7,27.91 -7.7,41.77 0,27 3.3,53.98 11.06,79.45 l 52.26,179.55 c 4.36,14.98 17.58,24.9 33.18,24.9 23.6,0 48.36,-4.19 71.39,-9.15 22.45,-4.84 47.54,-11.4 67.89,-22.25 41.68,-22.2 75.88,-55.05 104.06,-92.62 23.54,-31.4 45.13,-68.81 50.29,-108.34 1.55,-9.67 1.84,-19.92 1.84,-29.68 0,-29.4 -7.12,-57.42 -25.07,-79.21 z M 3015.86,2813.2 c -31.69,-32.71 -68.85,-57.92 -110.99,-75.12 -0.32,-0.13 -0.6,-0.24 -0.92,-0.37 l -25.91,-9.71 c -10.95,-4.11 -22.21,-2.71 -31.82,3.95 -9.61,6.66 -14.87,16.71 -14.87,28.4 v 221.81 c 0,16.73 1.99,33.67 7.38,49.56 6.47,19.03 18.91,34.3 36.99,43.27 21.76,10.78 45.14,15.96 69.41,15.96 33.79,0 65.61,-9.16 91.76,-31 30.26,-25.29 44.24,-59.83 44.24,-99 0,-57.65 -25.69,-106.9 -65.27,-147.75 z m 636.13,-160.26 c -15.43,9.44 -32.13,18.31 -49.29,24.17 -8.22,2.8 -21.56,7.37 -30.25,7.95 -6.6,0.43 -13.29,0.8 -19.9,0.8 -11.19,0 -20.83,4.8 -27.57,13.73 -6.75,8.94 -8.73,19.52 -5.66,30.29 l 70.77,248.4 c 4.32,15.17 17.77,25.23 33.55,25.08 15.77,-0.15 29.03,-10.45 33.08,-25.7 l 82.91,-312.92 c 3.96,-14.94 -2.08,-30.11 -15.23,-38.24 -13.15,-8.13 -29.42,-6.75 -41.02,3.47 -9.77,8.62 -20.98,16.32 -31.39,22.97 z m 2487.73,-358.98 39.04,137.28 c -20.98,-24.61 -44.55,-47.32 -71.13,-65.35 -23.29,-15.8 -48.74,-27.85 -75.37,-36.85 -26.64,-9 -54.35,-14.19 -82.51,-14.19 -24.29,0 -48.33,4.07 -70.54,14.12 -22.32,10.1 -40.44,25.76 -53.11,46.78 -10.06,16.68 -17.92,34.83 -21.44,54.07 -3.32,18.19 -4.26,37.2 -4.26,55.67 v 288.12 c 0,19.03 15.53,34.55 34.56,34.55 h 94.8 c 19.26,0 38.49,-7.06 55.5,-15.62 18.97,-9.54 35.95,-22.1 50.7,-37.35 l -16.62,112.76 c -0.96,-1.07 -1.93,-2.14 -2.93,-3.2 -0.28,-0.3 -0.53,-0.55 -0.82,-0.84 -11.14,-11 -24.06,-19.94 -38.88,-25.21 -12.87,-4.57 -26.29,-6.86 -39.96,-6.86 h -104 c -19.03,0 -34.55,15.52 -34.55,34.55 v 96.34 c 0,19.47 2.06,39.29 7.84,57.95 6.01,19.39 16.63,36.3 31.72,49.89 26.15,23.57 62.31,30.1 96.43,30.1 35.35,0 69.83,-7.29 102.75,-19.97 34.91,-13.45 65.99,-33.46 91.83,-60.54 5.23,-5.49 10.23,-11.11 14.98,-16.86 l -22.02,121.66 c -2.17,-0.41 -4.32,-0.83 -6.41,-1.22 -22.71,-4.25 -46.18,-7.34 -69.32,-7.34 h -429.5 c 7.7,-10.99 13.21,-23.24 15.28,-36.61 2.01,-12.99 2.25,-27.05 2.25,-40.19 v -637.17 c 0,-16.89 -0.76,-34.58 -3.96,-51.18 -3.32,-17.22 -10.79,-33.08 -20.84,-47.37 -0.32,-0.44 -0.59,-0.81 -0.93,-1.24 -0.45,-0.59 -0.91,-1.17 -1.37,-1.76 h 470.18 c 12.18,0 24.38,-0.61 36.49,-1.98 8.81,-1.01 17.56,-2.6 26.12,-4.94 z m -680.06,466.23 c 1.14,1.53 2.3,3.02 3.49,4.49 H 5265.5 c 6.79,-9.03 12.06,-19.03 15.23,-29.95 4.44,-15.24 4.72,-35.26 4.72,-51.1 v -210.75 c 0,-34.86 -5.71,-71.34 -24.59,-101.31 -22.58,-35.87 -58.46,-52.3 -100.31,-52.3 -97.69,0 -162.76,65.32 -205.44,147.68 -41.87,80.77 -60.9,168.09 -60.9,258.94 0,6.49 0.08,13 0.42,19.49 0.28,5.33 0.74,10.66 1.17,15.98 6.23,77.28 22.77,158.35 61.42,226.39 40.16,70.7 100.19,116.46 183.32,116.46 55.34,0 110.32,-21.41 158.14,-47.78 29.69,-16.38 54.09,-43.79 73.67,-71.18 l -12.8,128.32 c -12.71,-4.27 -26.22,-6 -39.8,-6 -19.8,0 -39.65,3.29 -58.81,8.12 -29.96,7.56 -60.45,14.04 -91.06,18.28 -27.84,3.86 -56.04,5.42 -84.13,5.42 -50.73,0 -101.19,-7.05 -149.11,-24.08 -44.28,-15.74 -82.87,-40.45 -115.68,-74.17 -23.32,-23.97 -42.45,-51.09 -57.77,-80.69 v -431.27 c 10.59,-23.93 23.02,-47 37.43,-68.85 37.7,-57.22 86.47,-104.27 150.67,-130.13 59.84,-24.11 135.76,-29.32 199.63,-29.32 h 306.12 c -4.24,5.85 -7.81,12.23 -10.86,18.77 -6.21,13.33 -10.54,27.46 -11.97,42.13 -0.11,1.17 -0.16,2.17 -0.16,3.35 v 296.43 c 0,16.99 0.77,34.71 3.94,51.43 3.3,17.4 10.76,33.28 21.67,47.2 z m -3611.64,219.15 22.63,127.14 c -16.3,-2.72 -32.81,0.87 -48.42,6.52 -9.78,3.55 -19.12,8.22 -28.78,11.71 -25.02,9.06 -50.5,16.85 -76.37,23.06 -51.88,12.44 -105.17,18.39 -158.51,18.39 -41.76,0 -86.16,-2.8 -126.91,-12.28 -28.34,-6.61 -58.25,-21.04 -83.38,-35.54 -81.1,-46.75 -118.8,-131.34 -136.23,-219.78 -10.5,-53.24 -7.84,-108.88 14.02,-159.02 31.38,-72.02 86.89,-134 160.1,-164.63 46.17,-15.43 92.35,-30.87 138.52,-46.28 30.77,-10.27 61.54,-20.54 92.31,-30.77 15.07,-5.02 30.38,-10.41 45.56,-15.07 0.63,-0.17 1.28,-0.36 1.92,-0.58 27.1,-9.04 56.28,-32.98 72.95,-56.03 54.75,-75.69 31.31,-197.59 -36.97,-257.38 -98.46,-86.21 -270,-59.02 -367.89,14.61 -52.23,39.28 -79.88,96.1 -102.22,155.78 -0.28,0.75 -0.56,1.49 -0.83,2.24 l -18.26,-246.37 c 3.08,1.28 6.27,2.32 9.55,3.06 8.59,1.94 17.63,2.49 26.42,2.49 1.92,0 3.56,-0.13 5.45,-0.43 54.34,-8.68 108.65,-17.55 162.92,-26.61 45.28,-7.57 91.78,-12.84 137.73,-12.84 56.06,0 150.3,11.91 202.22,32.94 61.76,25.03 109.11,60.51 151.08,111.74 49.71,60.69 72.51,131.31 72.51,209.69 0,61.61 -13.43,123.06 -47.55,175.05 -13.69,20.85 -31.91,38.17 -52.3,52.42 -40.93,28.59 -88.83,46.68 -135.67,63.11 -57.51,20.18 -114.65,41.37 -171.75,62.65 -46.74,17.42 -88.21,25.27 -125.06,63.05 -58.71,60.19 -46.17,157.65 8.14,215.92 24.17,25.93 63.88,45.56 98.17,53.66 123.55,29.2 209.24,-38.53 293.48,-120.22 0.47,-0.46 0.95,-0.92 1.42,-1.4 z m 5050.93,-257.42 c 3.9,1.84 8.59,4.88 11.94,6.97 10.3,6.43 20.38,13.35 30.32,20.31 35.14,24.62 67.76,53.8 93.32,88.42 30.13,40.78 47.2,85.98 47.2,136.81 0,8.52 -0.98,17.76 -1.69,25.62 -4.31,38.95 -19.8,70.54 -52.18,93.19 -40.68,28.44 -101,34.51 -149.17,34.51 h -595.97 c 9.94,-9.71 17.6,-21.74 23.63,-34.29 12.71,-26.42 16.29,-66.52 18.02,-95.53 1.11,-18.67 1.06,-37.73 1.02,-56.44 l -1.89,-741.31 c -0.06,-23.02 -1.27,-47.72 -6.64,-70.17 -5.47,-22.86 -17.36,-42.58 -34.32,-58.81 -2.97,-2.83 -6.06,-5.68 -9.27,-8.44 h 322.15 c -10.39,8.95 -19.17,20.08 -26.61,31.23 -10.75,16.1 -17.42,34.22 -20.89,53.21 -3.91,21.35 -4.82,44.02 -4.82,65.69 v 319.5 c 0,12.81 6.42,23.8 17.57,30.09 l 50.17,28.31 c 16.2,9.15 36.75,3.81 46.46,-12.07 19.16,-31.34 38.27,-62.71 57.33,-94.12 17.78,-29.31 35,-59.44 49.55,-90.51 17.66,-37.71 35.2,-75.52 52.18,-113.54 9.46,-21.16 19.27,-42.86 27.44,-64.55 11.13,-29.55 23.06,-66.45 23.06,-98.28 0,-20.69 -5.47,-41.15 -21.1,-54.96 h 329.8 c -30.34,30.94 -52.53,98.28 -63.6,130.92 -14.03,41.41 -28.26,82.86 -43.48,123.85 -8.26,22.25 -17.07,46.42 -27.64,67.67 -24.33,48.93 -49.86,97.35 -77.09,144.73 -27.19,47.31 -56.34,93.57 -86.45,139.08 -7.2,10.89 -7.79,23.92 -1.6,35.42 5.01,9.32 13.32,15.49 23.25,17.49 z m -133.63,14.17 c -39.56,-40.95 -85.94,-72.51 -138.61,-94.07 -0.32,-0.13 -0.59,-0.24 -0.92,-0.36 l -33.12,-12.47 c -10.94,-4.12 -22.21,-2.73 -31.83,3.93 -9.62,6.65 -14.89,16.71 -14.89,28.41 v 284.38 c 0,20.36 2.37,41.02 8.93,60.36 7.42,21.94 21.59,39.54 42.43,49.9 26.48,13.15 54.91,19.45 84.46,19.45 40.96,0 79.52,-10.98 111.19,-37.52 36.49,-30.58 53.05,-72.11 53.05,-119.38 0,-71.29 -31.83,-132.06 -80.69,-182.63 z M 2748.43,2053.77 c -8.75,-2.74 -17.98,-4.98 -26.91,-5.48 -7.29,-0.41 -14.61,-0.55 -21.91,-0.55 h -465.8 c -4.85,0 -10.22,0.6 -15.07,1.01 -4.22,0.34 -8.47,0.88 -12.66,1.72 l -19.32,-111.96 c 1.31,1.42 2.63,2.81 3.98,4.17 0.21,0.21 0.39,0.38 0.6,0.59 22.88,22.01 49.36,43.44 78.35,56.81 28.36,13.09 59.7,17.87 90.75,17.87 19.03,0 34.55,-15.52 34.55,-34.55 v -635.46 c 0,-20.17 -0.22,-42.33 -3.37,-62.28 -3.23,-20.44 -13.15,-38.49 -26.73,-53.89 -2.01,-2.29 -4.09,-4.52 -6.21,-6.68 h 234.98 c -3.84,4.42 -7.37,9.13 -10.62,14.04 -11.65,17.59 -18.92,37.21 -22.32,58 -3.32,20.31 -4.53,41.07 -4.53,61.62 v 17.76 l -0.74,606.85 c -0.02,9.52 3.37,17.72 10.1,24.46 6.73,6.73 14.92,10.13 24.45,10.13 39.21,0 77.08,-8.44 111.11,-28.33 25.78,-15.07 47.93,-35.55 67.01,-58.49 z m 591.07,-44.23 c 0.31,-0.46 0.62,-0.93 0.92,-1.41 8.66,-13.72 14.69,-28.71 18.26,-44.52 4.91,-21.8 4.93,-50.03 4.93,-72.36 v -79.43 c 0,-19.03 -15.52,-34.56 -34.56,-34.56 h -222.37 c -19.04,0 -34.56,15.53 -34.56,34.56 v 82.02 c 0,39.42 6.7,80.49 28.74,113.97 0.38,0.58 0.77,1.16 1.17,1.73 h -213.96 c 2.19,-2.84 4.24,-5.81 6.15,-8.86 7.84,-12.54 13.61,-26.22 15.98,-40.86 2.48,-15.33 2.68,-32.32 2.68,-47.84 v -12.01 l 1.49,-564.7 c 0.06,-22.89 -3.11,-45.75 -8.36,-68 -3.99,-16.94 -9.87,-39.11 -21.47,-52.95 h 214.17 c -1.38,1.64 -2.73,3.34 -4.04,5.09 -0.19,0.25 -0.35,0.47 -0.54,0.73 -9,12.65 -15.93,26.74 -18.82,42.07 -2.7,14.3 -3.19,29.79 -3.19,44.31 v 417.23 c 0,19.04 15.52,34.56 34.56,34.56 h 220.88 c 19.03,0 34.55,-15.52 34.55,-34.56 v -418.93 c 0,-14.62 -1.06,-29.42 -4.07,-43.74 -3.13,-14.9 -9.01,-28.9 -17.67,-41.42 -0.13,-0.18 -0.24,-0.34 -0.37,-0.52 -1.19,-1.65 -2.41,-3.26 -3.66,-4.82 h 212.29 c -8.85,12.64 -13.7,28 -16.61,43.01 -3.35,17.31 -4.68,35.03 -4.72,52.64 l -1.49,586.54 c -0.04,18.22 0.89,36.74 3.8,54.74 2.88,17.87 8.93,34.84 18.3,50.34 1.66,2.75 3.44,5.41 5.33,7.95 z m 400.68,0 c 0.66,-0.94 1.3,-1.89 1.93,-2.87 10.3,-16.06 16.67,-33.84 19.27,-52.74 2.85,-20.68 3.31,-42.52 3.31,-63.37 v -583.09 c 0,-14.77 -1.01,-29.91 -4.12,-44.38 -3.29,-15.27 -9.78,-29.32 -18.57,-41.09 -1.87,-2.66 -3.83,-5.23 -5.86,-7.68 h 216.87 c -10.62,12.84 -16.05,29.46 -19.17,45.61 -3.35,17.34 -4.72,35.06 -4.72,52.7 v 580.52 c 0,18.71 0.51,37.98 2.88,56.56 2.33,18.11 8.33,35.17 18.02,50.63 1.98,3.14 4.08,6.23 6.33,9.2 z m 977.04,0 h -82.74 c 2.69,-3.29 5.18,-6.77 7.49,-10.4 7.48,-11.77 13.5,-24.73 16.07,-38.51 2.5,-13.39 2.84,-28.15 2.84,-41.75 v -205.5 c 0,-15.39 -9.62,-28.44 -24.32,-33 -14.69,-4.56 -30.01,0.75 -38.72,13.43 l -149.49,217.61 c -0.11,0.16 -0.2,0.3 -0.31,0.47 -4.94,7.44 -9.9,15.45 -13.02,22.81 -5.94,12.96 -9.86,26.85 -9.86,41.18 0,12.01 3.43,23.41 9.56,33.66 h -302.67 c 0.52,-0.63 1.04,-1.27 1.55,-1.93 11.24,-14.3 15.46,-34.07 17.56,-51.77 2.24,-18.8 3.22,-37.76 3.22,-56.7 v -550.32 c 0,-28.51 -1.94,-57.37 -7.31,-85.41 -3.24,-16.91 -8.61,-34.59 -18.34,-49.09 h 77.45 c -3.83,5.16 -7.09,10.78 -9.79,16.77 -5.37,11.91 -9.17,24.4 -11.37,37.29 -2.38,13.94 -3.07,28.39 -3.06,42.52 l 0.74,577.82 c 0.02,15.19 9.38,28.08 23.82,32.8 14.44,4.72 29.61,-0.16 38.6,-12.41 l 341.51,-465.71 c 15.64,-21.33 32.65,-45.8 43.65,-69.92 12.4,-27.2 18.69,-55.98 18.69,-85.9 0,-26.8 -5.47,-53.08 -19.73,-73.26 h 84.35 c -3.72,4.69 -6.99,9.77 -9.79,15.22 -7.04,13.73 -11.01,28.72 -12.85,43.99 -1.45,12.07 -2.47,24.33 -2.47,36.49 v 574.5 c 0,19.03 1.37,38.12 3.56,57.02 2.64,22.85 9.46,44.95 22.44,64.11 0.88,1.32 1.8,2.62 2.74,3.89 z m 1414.43,-117.66 -10.69,118.75 c -4.75,-1.99 -9.58,-3.78 -14.48,-5.36 -6.19,-2.11 -12.63,-2.63 -19.16,-2.63 -2.64,0 -4.89,0.25 -7.47,0.82 -32.93,7.29 -65.81,14.81 -98.64,22.54 -25.44,6 -52.16,10.29 -78.36,10.29 -16.31,0 -32.75,-1.42 -48.65,-5.13 -60.93,-14.23 -116.93,-40.8 -160.79,-86.2 -45.28,-46.86 -66.16,-102.65 -66.16,-167.68 0,-43.36 10.11,-84.18 36.27,-119.2 24.11,-32.27 57.47,-53.59 94.74,-67.84 l 196.37,-75.13 c 24.49,-9.38 44.44,-25.35 59.08,-47.09 15.1,-22.42 21.9,-48.04 21.9,-74.98 0,-9.11 -0.45,-18.53 -2.02,-27.51 -7.38,-42.3 -27.99,-77.62 -63.14,-102.55 -34.55,-24.5 -74.58,-34.87 -116.68,-34.87 -42.06,0 -82.46,11.18 -120.19,29.31 -41.22,19.79 -76.25,48.13 -105.17,83.56 -7.24,8.87 -13.85,18.38 -19.91,28.31 l 12.1,-149.12 c 5.78,0.79 11.67,1.06 17.47,1.06 1.76,0 3.27,-0.11 5.01,-0.37 46.21,-6.77 92.39,-13.68 138.55,-20.75 38.46,-5.88 77.82,-9.97 116.76,-9.97 44.51,0 88.46,10.04 130.04,25.48 49.91,18.52 96.3,45.62 132.04,85.61 40.09,44.85 58.15,97.43 58.15,157.43 0,45.13 -8.55,90.41 -33.96,128.46 -23.19,34.73 -54.67,58.59 -93.8,73.17 l -178.48,66.49 c -31.59,11.77 -62.68,28.97 -84.08,55.65 -16.84,21 -25.46,45.66 -25.46,72.56 0,15.64 2.21,31.08 6.65,46.07 2.99,10.12 7.12,20 11.45,28.88 10.12,21.88 26.28,38.83 47.85,49.63 20.57,10.29 43.17,14.45 66.05,14.45 28.21,0 55.85,-6.08 82.16,-16.05 26.62,-10.09 51.55,-23.8 73.9,-41.48 15.51,-12.28 29,-27.74 40.75,-44.61 z m -638.74,-218.24 c 1.14,1.52 2.3,3.02 3.49,4.48 h -197.67 c 6.79,-9.03 12.07,-19.02 15.25,-29.94 4.43,-15.25 4.71,-35.27 4.71,-51.11 v -210.76 c 0,-34.87 -5.7,-71.34 -24.58,-101.31 -22.58,-35.86 -58.48,-52.3 -100.32,-52.3 -97.69,0 -162.75,65.33 -205.44,147.68 -41.87,80.77 -60.89,168.1 -60.89,258.94 0,6.49 0.08,13.01 0.42,19.49 0.28,5.33 0.73,10.65 1.16,15.97 6.23,77.3 22.78,158.34 61.43,226.4 40.17,70.7 100.2,116.45 183.33,116.45 55.32,0 110.31,-21.42 158.11,-47.78 29.7,-16.37 54.09,-43.79 73.69,-71.17 l -12.81,128.31 c -12.7,-4.26 -26.21,-6.01 -39.78,-6.01 -19.8,0 -39.65,3.31 -58.81,8.13 -29.96,7.55 -60.47,14.05 -91.08,18.29 -27.84,3.86 -56.04,5.4 -84.13,5.4 -50.73,0 -101.2,-7.04 -149.11,-24.06 -44.29,-15.73 -82.86,-40.46 -115.66,-74.17 -23.33,-23.97 -42.47,-51.08 -57.79,-80.69 V 1442.6 c 10.6,-23.92 23.03,-46.99 37.43,-68.84 37.71,-57.23 86.47,-104.26 150.68,-130.13 59.84,-24.1 135.76,-29.31 199.62,-29.31 h 306.12 c -4.24,5.85 -7.81,12.23 -10.86,18.77 -6.21,13.32 -10.54,27.45 -11.97,42.11 -0.11,1.18 -0.16,2.18 -0.16,3.37 v 296.42 c 0,16.98 0.77,34.7 3.94,51.41 3.29,17.42 10.76,33.3 21.68,47.24 z m -2963.08,1282.9 c 20.74,-29.47 35.3,-61.86 43.69,-97.21 l 22.21,8.01 -49.61,306.6 c -9.89,-7.33 -20.12,-12.83 -30.74,-16.49 -10.61,-3.68 -18.88,-5.66 -24.8,-5.99 -5.92,-0.32 -12.59,-0.5 -20,-0.5 h -444.3 -21.49 c -0.99,0 -5.06,0.29 -12.21,0.89 -7.17,0.58 -12.72,1.77 -16.65,3.52 -9.89,5.31 -18.03,11.49 -24.43,18.57 l -53.33,-306.65 22.21,-5.31 c 4.44,20.01 14.07,44.19 28.87,72.46 12.35,23.57 24.7,41.54 37.04,53.91 24.67,23.56 47.64,40.21 68.87,49.93 21.21,9.72 46.65,14.58 76.27,14.58 v -630.4 c 0,-25.27 -1,-44.07 -2.97,-56.42 -1.97,-12.34 -8.14,-24.39 -18.51,-36.15 -17.28,-19.4 -35.54,-29.09 -54.79,-29.09 -4.45,0 -7.91,-0.29 -10.37,-0.88 v -33.59 h 405.81 v 34.47 c -15.81,0 -28.89,2.19 -39.25,6.61 -10.37,4.42 -19.88,13.09 -28.53,26.04 -8.62,12.96 -14.31,27.67 -17.02,44.15 -2.72,16.47 -4.07,35.01 -4.07,55.6 v 17.66 l -0.74,602 c 35.55,0 66.76,-7.81 93.67,-23.41 26.91,-15.63 51.96,-39.93 75.17,-72.91 z m 1140.2,-274.13 c -20.21,12.37 -38.92,21.5 -56.15,27.39 -17.25,5.89 -30.3,9.13 -39.17,9.73 -8.85,0.57 -16.25,0.88 -22.16,0.88 l 70.77,248.4 82.91,-312.92 c -9.37,8.26 -21.43,17.09 -36.2,26.52 z m -678.98,154.83 c -28.64,-29.48 -61.73,-51.86 -99.24,-67.17 l -25.91,-9.72 v 221.81 c 0,14.72 1.85,27.54 5.56,38.46 3.7,10.89 10.22,18.68 19.61,23.41 16.79,8.24 34.81,12.37 54.06,12.37 28.14,0 51.35,-7.66 69.6,-22.97 21.23,-17.68 31.84,-41.86 31.84,-72.48 0,-44.18 -18.5,-85.42 -55.52,-123.71 z m 1261.31,-570.91 v 34.44 c -11.7,2.34 -21.2,6.02 -28.5,11.02 -7.32,5 -13.04,12.2 -17.18,21.64 -4.15,9.4 -7.07,19.25 -8.77,29.55 -1.73,10.31 -2.57,22.79 -2.57,37.52 l 0.75,591.39 339.98,-476.64 c 19.72,-27.66 33.03,-49.43 39.94,-65.32 10.34,-22.95 15.51,-47.38 15.51,-73.27 0,-38.85 -12.1,-62.96 -36.29,-72.37 -6.43,-2.36 -12.83,-3.52 -19.24,-3.52 v -34.44 h 223.61 v 34.45 c -10.35,1.15 -19.87,4.53 -28.5,10.14 -8.63,5.57 -15.3,13.09 -20,22.51 -4.7,9.41 -7.77,20.45 -9.24,33.1 -1.5,12.65 -2.23,23.7 -2.23,33.1 v 588.01 c 0,16.46 1.11,34.57 3.33,54.29 2.24,19.72 7.77,36.35 16.67,49.87 7.41,11.2 15.54,18.25 24.44,21.19 5.93,1.19 11.83,2.36 17.76,3.54 v 34.42 H 4538.2 v -34.45 c 11.99,-1.77 22.1,-4.87 30.34,-9.29 8.24,-4.41 15.35,-11.49 21.34,-21.2 6,-9.72 9.75,-18.72 11.23,-26.96 1.49,-8.26 2.26,-20.33 2.26,-36.23 v -10.6 -199.74 l -148.85,222.71 c -4.93,7.65 -8.4,13.84 -10.37,18.57 -4.43,9.99 -6.66,19.13 -6.66,27.38 0,5.89 1.72,11.64 5.2,17.25 3.43,5.58 7.02,9.99 10.72,13.24 3.71,3.23 8.02,4.87 12.95,4.87 v 34.45 H 4042.8 v -34.45 c 18.25,-2.96 32.58,-11.19 42.95,-24.72 4.93,-6.48 8.38,-18.26 10.37,-35.32 1.97,-17.07 2.97,-35.01 2.97,-53.84 v -22.08 -541.18 c 0,-30.02 -2.23,-56.93 -6.68,-80.77 -4.25,-22.8 -11.23,-38.12 -20.92,-46.1 -1.99,1.42 -3.99,2.81 -6.11,4.6 -5.92,5 -12.1,13.7 -18.51,26.05 -1.98,4.11 -4.7,9.7 -8.16,16.77 l -192.52,689.5 c -2.96,10.58 -4.7,16.46 -5.18,17.64 -1.49,5.88 -2.22,11.19 -2.22,15.9 0,4.69 0.97,9.41 2.95,14.12 4.45,9.99 12.59,15 24.44,15 v 38.88 h -328.05 v -33.57 c 3.45,-1.18 6.79,-2.65 10,-4.41 3.21,-1.77 6.41,-5.47 9.62,-11.06 3.21,-5.6 4.82,-12.52 4.82,-20.77 0,-5.89 -1,-12.37 -2.97,-19.43 -1.97,-7.07 -4.2,-14.15 -6.65,-21.23 L 3347.8,2412.16 c -5.92,-19.44 -12.11,-34.61 -18.52,-45.51 -1.49,-2.55 -3.2,-5.15 -5.05,-7.76 -5.35,12.79 -10.99,27.66 -16.99,45.18 -26.66,78.84 -45.67,129.76 -57.03,152.72 -21.23,42.37 -41.59,80.49 -61.08,114.33 -19.5,33.83 -42.33,70.49 -68.5,109.93 3.94,0 18.25,8.53 42.95,25.59 32.58,22.95 58.99,47.97 79.24,75.04 28.13,38.26 42.2,79.16 42.2,122.73 0,4.69 -0.5,12.35 -1.47,22.95 -4.44,40.01 -21.85,70.64 -52.21,91.82 -30.36,21.17 -74.43,31.77 -132.18,31.77 h -518.37 v -34.45 c 10.37,0 19.26,-2.2 26.66,-6.64 7.41,-4.41 13.94,-12.51 19.63,-24.26 5.67,-11.78 9.49,-33.26 11.48,-64.46 0.49,-9.99 0.73,-24.11 0.73,-42.35 l -1.46,-578.25 c 0,-20 -1.49,-36.18 -4.46,-48.53 -2.96,-12.38 -9.39,-23.26 -19.24,-32.67 -7.41,-7.06 -13.7,-11.94 -18.89,-14.57 -5.19,-2.66 -11.98,-3.97 -20.37,-3.97 v -34.47 h 353.23 v 34.47 c -13.83,3.54 -22.47,6.18 -25.92,7.94 -7.41,4.12 -15.06,12.08 -22.96,23.89 -5.92,8.82 -9.99,19.28 -12.22,31.35 -2.22,12.07 -3.33,27.53 -3.33,46.4 v 249.21 l 39.24,22.1 c 14.82,-24.16 29.75,-48.6 44.8,-73.36 15.07,-24.73 27.53,-47.42 37.41,-68.04 33.56,-71.88 54.05,-117.54 61.45,-136.99 10.86,-28.86 16.31,-51.25 16.31,-67.15 0,-11.8 -2.98,-19.74 -8.89,-23.86 -10.86,-7.67 -22.96,-12.38 -36.28,-14.15 v -31.81 h 238.29 134.91 110.93 v 32.7 c -9.37,1.77 -17.76,5.15 -25.18,10.15 -7.4,5.01 -14.07,12.82 -19.98,23.42 -2.49,4.7 -3.71,13.26 -3.71,25.63 0,25.32 3.23,48.59 9.69,69.8 l 52.26,179.55 c 16.81,0 38.17,-2.79 64.12,-8.38 25.94,-5.58 45.57,-11.9 58.92,-18.96 34.11,-18.22 64.99,-45.83 92.66,-82.87 25.68,-34.11 40.27,-64.98 43.74,-92.59 0.98,-5.89 1.48,-14.11 1.48,-24.69 0,-31.75 -9.88,-54.69 -29.62,-68.79 -6.43,-4.1 -16.05,-7.64 -28.88,-10.58 v -34.39 h 319.54 64.05 z m 1857.34,-1.77 c 10.37,-1.17 19.73,-3.23 28.13,-6.18 l 25.18,-8.83 96.26,338.46 -25.16,15.03 c -8.4,-38.88 -28.14,-79.24 -59.24,-121.08 -27.66,-37.7 -56.54,-66.87 -86.64,-87.48 -20.27,-13.56 -42.59,-24.45 -67.03,-32.71 -24.44,-8.25 -48.27,-12.37 -71.45,-12.37 -21.23,0 -40,3.67 -56.3,11.05 -16.26,7.36 -28.86,18.4 -37.76,33.14 -8.88,14.72 -14.56,28.86 -17.03,42.43 -2.48,13.54 -3.7,30.03 -3.7,49.47 v 14.15 21.22 252.75 h 94.8 c 10.83,0 24.17,-3.99 39.97,-11.93 15.8,-7.96 29.86,-18.43 42.23,-31.39 12.31,-12.96 23.43,-30.64 33.31,-53.02 7.89,-18.26 12.83,-33.29 14.81,-45.06 l 28.15,5.3 -49.63,336.7 -22.21,-7.96 v -13.24 c 0,-25.34 -8.37,-46.84 -25.09,-64.52 -8.35,-8.25 -17.07,-14.01 -26.16,-17.23 -9.11,-3.24 -18.57,-4.87 -28.39,-4.87 h -104 v 96.34 c 0,18.23 2.07,34.15 6.3,47.72 4.17,13.55 11.46,25.02 21.84,34.46 15.8,14.14 40.23,21.21 73.3,21.21 29.63,0 59.74,-5.89 90.33,-17.67 30.61,-11.79 57.04,-29.17 79.25,-52.15 38.49,-40.66 63.43,-90.13 74.8,-148.46 l 24.43,22.09 -54.06,298.71 c -8.4,-3.94 -15.06,-6.47 -19.99,-7.59 -0.99,0 -7.65,-1.11 -19.99,-3.35 -23.7,-4.5 -44.7,-6.75 -62.96,-6.75 h -13.31 -488.76 v -34.45 c 10.87,0 19.27,-1.04 25.18,-3.09 5.93,-2.08 11.86,-7.08 17.79,-15.02 5.9,-7.97 9.48,-15.91 10.74,-23.87 1.2,-7.95 1.84,-19.59 1.84,-34.92 v -9.72 -627.45 c 0,-18.27 -1.11,-33.15 -3.34,-44.64 -2.21,-11.48 -7.29,-22.83 -15.17,-34.02 -5.93,-7.66 -10.99,-12.81 -15.19,-15.45 -4.2,-2.66 -13.7,-5.46 -28.5,-8.41 v -33.58 h 539.83 c 11.35,0 22.21,-0.58 32.59,-1.77 z m -641.1,397 c 0,18.23 1.11,33.22 3.33,45 2.23,11.74 7.27,22.64 15.18,32.64 14.82,20 32.33,29.99 52.59,29.99 v 30.04 h -354.72 v -32.7 h 11.85 c 14.33,0 27.13,-6.47 38.49,-19.39 5.93,-7.06 10.01,-14.41 12.24,-22.07 2.22,-7.64 3.33,-21.44 3.33,-41.44 v -210.75 c 0,-34.68 -6.44,-62.33 -19.27,-82.91 -15.3,-24.11 -38.99,-36.15 -71.07,-36.15 -72.1,0 -130.34,42.99 -174.77,129.03 -38.03,73.05 -57.01,154.05 -57.01,243.04 0,7.05 0.11,12.95 0.36,17.66 0.25,4.71 0.61,9.73 1.11,15.04 6.9,86.59 25.93,157.3 57.03,212.09 37.51,65.98 88.62,98.97 153.27,98.97 41.48,0 88.62,-14.48 141.45,-43.48 21.21,-11.85 42.44,-32.85 63.67,-63.01 27.66,-39.06 45.66,-72.79 54.07,-101.18 l 18.5,11.51 -30.34,303.99 c -8.89,-8.26 -17.53,-16.51 -25.93,-24.75 -10.87,-7.07 -24.93,-10.6 -42.21,-10.6 -15.3,0 -32.09,2.33 -50.36,7.07 -35.54,8.84 -67.13,15.15 -94.77,19 -27.66,3.81 -57.27,5.74 -88.87,5.74 -58.27,0 -111.82,-8.7 -160.68,-26.07 -48.89,-17.39 -91.84,-44.94 -128.87,-82.63 -27.63,-28.76 -50.1,-61 -67.56,-96.58 V 2522 c 12.13,-28.47 26.46,-55.41 43.13,-80.68 45.41,-68.94 100.97,-116.66 166.61,-143.18 52.83,-21.21 123.66,-31.81 212.54,-31.81 h 370.25 v 33.52 c -11.83,3.53 -20.87,7.49 -27.03,11.91 -6.17,4.41 -11.73,11.9 -16.64,22.5 -4.97,10.57 -7.93,20.87 -8.9,30.87 v 33.52 z M 1228.43,2064.42 c 4.94,1.1 11.22,1.63 18.8,1.63 55.39,-8.84 109.62,-17.71 162.68,-26.57 53.04,-8.87 100.86,-13.31 143.42,-13.31 53.05,0 156.89,11.84 215.19,35.48 71.13,28.81 121.69,69.41 164.84,121.87 52.48,64.28 80.34,141.46 80.34,231.58 0,68.48 -15.35,136.3 -53.23,194.01 -16.14,24.59 -37.4,45 -61.39,61.78 -43.78,30.57 -93.94,49.83 -144.02,67.4 -57.31,20.11 -114.18,41.2 -171.12,62.42 -40.02,14.93 -81.17,22.78 -112.39,54.79 -45.67,46.84 -33.25,123.27 8.68,168.24 19.46,20.9 53.51,37.14 80.84,43.6 99.31,23.47 170.06,-22.75 261.47,-111.4 21.55,-20.9 44.33,-67.88 44.33,-67.88 l 50.79,285.35 c -5.83,-3.71 -30.12,-19.57 -40.63,-27.7 -19.55,-15.14 -52.38,4.46 -71.83,11.5 -26.23,9.49 -52.93,17.64 -80.06,24.16 -54.55,13.07 -110.5,19.34 -166.57,19.34 -43.98,0 -91.93,-3.22 -134.75,-13.18 -31.44,-7.34 -64.95,-23.2 -92.8,-39.25 -90.26,-52.04 -133.43,-144.46 -152.87,-243.04 -11.89,-60.34 -8.51,-122.72 16.24,-179.51 35.19,-80.74 97.68,-149.33 179.66,-183.19 0,0 279.49,-93.11 279.5,-93.11 20.18,-6.73 43.59,-26.48 55.89,-43.5 44.36,-61.32 22.88,-163.31 -31.74,-211.13 -85.67,-75.02 -239.84,-47.34 -324.36,16.22 -46.34,34.88 -70.84,87.36 -90.63,140.28 -1.16,3.07 -22.17,61.18 -21.02,61.18 h -41.56 l -28.62,-386.31 c 6.41,5.94 32.72,22.73 39.43,28.28 6.69,5.53 12.53,8.84 17.49,9.97 z m 5512.04,695.68 c -36.6,-37.77 -78.88,-66.47 -126.85,-86.1 l -33.12,-12.47 v 284.38 c 0,18.88 2.36,35.3 7.1,49.28 4.72,13.97 13.08,23.98 25.09,30.03 21.44,10.57 44.47,15.85 69.08,15.85 35.97,0 65.65,-9.82 89,-29.46 27.12,-22.66 40.69,-53.63 40.69,-92.89 0,-56.65 -23.66,-109.52 -70.99,-158.62 z m 253.24,-212.95 c -24.96,43.38 -54.14,90.35 -87.58,140.92 5.04,0 23.33,10.95 54.91,32.84 41.64,29.4 75.4,61.47 101.29,96.18 35.97,49.04 53.96,101.48 53.96,157.34 0,6.02 -0.66,15.83 -1.91,29.41 -5.67,51.32 -27.92,90.56 -66.72,117.71 -38.83,27.15 -95.14,40.75 -168.97,40.75 h -662.64 v -44.17 c 13.25,0 24.61,-2.84 34.07,-8.51 9.47,-5.66 17.83,-16.04 25.09,-31.13 7.25,-15.07 12.15,-42.61 14.67,-82.61 0.63,-12.81 0.95,-30.93 0.95,-54.3 l -1.88,-741.31 c 0,-25.65 -1.91,-46.38 -5.7,-62.23 -3.79,-15.85 -11.99,-29.82 -24.6,-41.87 -9.46,-9.07 -17.52,-15.28 -24.13,-18.69 -6.63,-3.41 -15.31,-5.08 -26.05,-5.08 v -44.2 H 6660 v 44.2 c -17.66,4.53 -28.73,7.92 -33.11,10.19 -9.48,5.29 -19.26,15.48 -29.35,30.59 -7.58,11.34 -12.8,24.74 -15.63,40.23 -2.83,15.47 -4.26,35.3 -4.26,59.48 v 319.5 l 50.17,28.31 c 18.93,-30.97 38.03,-62.31 57.27,-94.03 19.25,-31.72 35.19,-60.81 47.8,-87.24 42.92,-92.15 69.12,-150.67 78.57,-175.61 13.87,-37.01 20.84,-65.71 20.84,-86.1 0,-15.13 -3.79,-25.32 -11.35,-30.59 -13.9,-9.83 -29.36,-15.88 -46.4,-18.12 v -40.81 h 477.1 v 38.49 c -17.69,3.79 -32.52,8.68 -44.51,14.72 -16.4,8.29 -37.22,49.41 -62.45,123.36 -34.1,101.11 -58.4,166.37 -72.91,195.81 -27.14,54.32 -53.17,103.17 -78.07,146.57 z m -4218.58,-441.7 c -9.89,-7.4 -20.12,-12.94 -30.72,-16.62 -10.63,-3.7 -18.9,-5.72 -24.82,-6.04 -5.92,-0.34 -12.58,-0.5 -19.98,-0.5 h -444.32 -21.48 c -0.99,0 -5.06,0.29 -12.21,0.89 -7.17,0.59 -12.72,1.77 -16.67,3.58 -9.88,5.32 -18.03,11.56 -24.43,18.69 l -53.32,-309.11 22.21,-5.37 c 4.45,20.19 14.07,44.55 28.89,73.05 12.32,23.76 24.67,41.88 37.01,54.34 24.69,23.75 47.64,40.54 68.87,50.35 21.23,9.78 46.66,14.69 76.28,14.69 v -635.46 c 0,-25.48 -1,-44.44 -2.95,-56.88 -1.99,-12.45 -8.15,-24.61 -18.52,-36.45 -17.29,-19.55 -35.55,-29.33 -54.81,-29.33 -4.44,0 -7.9,-0.3 -10.36,-0.89 v -33.85 h 405.81 v 34.74 c -15.81,0 -28.9,2.2 -39.26,6.67 -10.37,4.45 -19.87,13.2 -28.5,26.25 -8.65,13.05 -14.33,27.88 -17.03,44.51 -2.73,16.59 -4.08,35.29 -4.08,56.04 v 17.8 L 2590,1983.4 c 35.55,0 66.77,-7.88 93.67,-23.61 26.9,-15.73 51.96,-40.23 75.17,-73.49 20.73,-29.71 35.29,-62.36 43.69,-97.98 l 22.22,8.06 z m 490.71,-95.03 c 8.93,-1.74 15.61,-3.19 20.07,-4.34 12.39,-4.02 20.82,-9.47 25.29,-16.4 6.44,-10.35 11.03,-21.57 13.77,-33.67 2.71,-12.08 4.08,-33.66 4.08,-64.76 v -79.43 h -222.37 v 82.02 c 0,39.71 7.66,71.39 23.04,94.98 5.46,8.07 12.89,13.67 22.31,16.83 9.42,3.16 17.11,4.77 23.07,4.77 v 33.67 h -358.51 v -33.67 c 11.41,-1.74 20.83,-4.46 28.27,-8.2 7.44,-3.75 14.13,-10.38 20.07,-19.87 5.95,-9.51 9.68,-18.85 11.16,-28.05 1.5,-9.22 2.24,-23.32 2.24,-42.32 v -12.1 l 1.49,-564.7 c 0,-18.97 -2.5,-38.99 -7.44,-59.99 -4.96,-21.04 -9.92,-34.11 -14.88,-39.31 -9.42,-9.19 -15.99,-14.81 -19.71,-16.83 -3.72,-2.02 -10.54,-4.18 -20.45,-6.47 v -32.81 h 355.52 v 33.67 c -20.34,0 -37.19,8.92 -50.57,26.73 -6.95,9.76 -11.29,19.25 -13.02,28.45 -1.75,9.2 -2.59,21.83 -2.59,37.9 v 417.23 h 220.88 v -418.93 c 0,-13.81 -1.11,-26.01 -3.34,-36.64 -2.24,-10.63 -6.33,-20.26 -12.28,-28.88 -12.4,-17.25 -28.99,-25.86 -49.83,-25.86 v -33.67 h 360.74 v 33.67 c -18.85,0 -33.72,6.32 -44.64,18.98 -5.45,6.91 -9.55,17.4 -12.26,31.47 -2.73,14.09 -4.09,29.48 -4.09,46.17 l -1.49,586.54 c 0,18.95 1.11,35.34 3.34,49.15 2.24,13.8 6.81,26.47 13.77,37.96 6.93,11.49 15.86,18.98 26.77,22.42 6.44,1.15 13.13,2.6 20.09,4.33 v 33.63 h -358.5 z m 398.09,0.04 c 13.89,-2.32 24.55,-5.04 32,-8.2 7.43,-3.16 13.12,-7.92 17.09,-14.24 7.45,-11.5 12.15,-24.43 14.13,-38.81 1.98,-14.39 2.98,-33.94 2.98,-58.65 v -583.09 c 0,-14.38 -1.11,-26.77 -3.34,-37.11 -2.23,-10.34 -6.59,-19.82 -13.02,-28.45 -13.39,-18.98 -30.01,-28.47 -49.84,-28.47 v -33.67 h 360.74 v 33.67 c -9.44,0 -17.86,2.15 -25.29,6.47 -7.44,4.31 -13.89,9.63 -19.35,15.96 -5.46,6.34 -9.54,16.53 -12.27,30.62 -2.72,14.09 -4.09,29.47 -4.09,46.14 v 580.52 c 0,21.26 0.87,38.65 2.61,52.16 1.72,13.53 6.07,25.75 13.02,36.67 4.94,8.04 10.15,13.94 15.61,17.68 5.45,3.74 15.87,7.34 31.25,10.8 v 33.63 h -362.23 z m 1070.61,-765.14 c -4.72,9.2 -7.81,19.98 -9.28,32.34 -1.5,12.36 -2.23,23.16 -2.23,32.36 v 574.5 c 0,16.08 1.11,33.77 3.33,53.05 2.23,19.25 7.82,35.49 16.73,48.71 7.45,10.94 15.63,17.84 24.54,20.71 l 17.87,3.45 v 33.65 h -224.62 v -33.67 c 12.03,-1.74 22.2,-4.77 30.47,-9.07 8.26,-4.33 15.41,-11.23 21.45,-20.73 6.02,-9.48 9.76,-18.28 11.27,-26.32 1.5,-8.08 2.25,-19.87 2.25,-35.42 v -10.36 -195.14 l -149.49,217.6 c -4.95,7.47 -8.44,13.51 -10.4,18.13 -4.49,9.78 -6.72,18.69 -6.72,26.77 0,5.75 1.73,11.35 5.22,16.83 3.46,5.46 7.06,9.78 10.78,12.94 3.73,3.16 8.05,4.77 13.02,4.77 v 33.67 H 4063.3 v -33.67 c 18.34,-2.91 32.72,-10.93 43.14,-24.16 4.95,-6.32 8.42,-17.83 10.42,-34.5 1.96,-16.69 2.96,-34.22 2.96,-52.62 v -21.57 -528.75 c 0,-29.33 -2.23,-55.63 -6.69,-78.91 -4.45,-23.29 -11.89,-38.67 -22.32,-46.14 -5.95,-4.04 -10.67,-6.47 -14.13,-7.34 -3.48,-0.87 -9.93,-1.88 -19.33,-3.03 v -33.63 h 216.43 v 33.63 c -11.75,2.29 -21.29,5.9 -28.64,10.78 -7.33,4.89 -13.1,11.92 -17.25,21.12 -4.16,9.22 -7.09,18.83 -8.81,28.89 -1.72,10.07 -2.56,22.27 -2.56,36.67 l 0.73,577.82 341.51,-465.71 c 19.78,-27.03 33.15,-48.31 40.08,-63.83 10.38,-22.42 15.58,-46.26 15.58,-71.56 0,-37.97 -12.15,-61.54 -36.45,-70.71 -6.45,-2.32 -12.9,-3.47 -19.32,-3.47 v -33.63 h 224.6 v 33.65 c -10.4,1.13 -19.94,4.43 -28.63,9.9 -8.67,5.47 -15.36,12.81 -20.08,22 z m 1368.38,447.35 -178.49,66.49 c -31.23,11.49 -54.3,26.47 -69.18,44.89 -11.9,14.95 -17.85,31.95 -17.85,50.94 0,12.67 1.73,24.74 5.22,36.26 1.97,6.93 5.2,14.97 9.68,24.18 6.92,14.97 17.57,26.05 31.96,33.24 14.37,7.21 31.26,10.8 50.58,10.8 22.32,0 45.62,-4.61 69.91,-13.81 24.3,-9.22 45.86,-21.32 64.71,-36.27 23.31,-18.42 44.87,-49.23 64.71,-92.4 8.42,-17.84 13.38,-31.08 14.87,-39.71 l 26.77,9.49 -25.27,280.63 c -4.95,-2.89 -11.9,-7.48 -20.82,-13.81 -11.9,-6.92 -23.32,-12.09 -34.22,-15.55 -1.5,-0.57 -4.22,-0.84 -8.18,-0.84 -33.72,7.46 -66.44,14.94 -98.18,22.43 -31.75,7.47 -60.51,11.21 -86.29,11.21 -19.83,0 -38.68,-2.01 -56.51,-6.04 -73.39,-17.27 -132.65,-49.21 -177.77,-95.82 -50.57,-52.41 -75.87,-116.3 -75.87,-191.7 0,-54.7 14.37,-101.32 43.14,-139.89 26.28,-35.1 62.98,-61.6 110.07,-79.43 l 196.38,-75.13 c 17.83,-6.9 32.09,-18.26 42.76,-34.11 10.65,-15.81 16,-34.38 16,-55.68 0,-9.22 -0.52,-16.41 -1.5,-21.58 -5.94,-34.55 -22.32,-61.32 -49.09,-80.29 -26.77,-19.01 -59.01,-28.51 -96.69,-28.51 -34.22,0 -69.31,8.64 -105.23,25.9 -35.99,17.28 -67.08,42.01 -93.35,74.26 -18.36,22.45 -34.48,52.97 -48.36,91.54 -10.9,29.9 -17.1,53.52 -18.58,70.8 l -26.77,-3.46 28.99,-357.48 c 5.46,4.62 11.04,9.08 16.74,13.4 5.68,4.31 10.67,6.91 14.88,7.78 4.2,0.84 9.53,1.27 15.98,1.27 47.12,-6.9 93.22,-13.81 138.34,-20.71 45.13,-6.91 85.79,-10.37 121.98,-10.37 45.13,0 92.49,9.21 142.07,27.63 60.49,22.46 109.08,54.09 145.77,94.98 44.63,50.08 66.95,110.23 66.95,180.46 0,58.73 -13.28,107.94 -39.79,147.65 -26.54,39.72 -63.35,68.51 -110.47,86.36 z m -592.18,-444.99 c -4.95,10.59 -7.92,20.89 -8.9,30.89 v 33.52 262.9 c 0,18.23 1.11,33.23 3.34,44.98 2.22,11.77 7.27,22.66 15.17,32.66 14.82,19.98 32.33,29.98 52.59,29.98 v 30.06 h -354.71 v -32.7 h 11.84 c 14.33,0 27.14,-6.47 38.5,-19.42 5.94,-7.06 10,-14.39 12.23,-22.03 2.23,-7.66 3.34,-21.47 3.34,-41.45 v -210.76 c 0,-34.7 -6.43,-62.33 -19.26,-82.9 -15.31,-24.1 -39.01,-36.16 -71.09,-36.16 -72.09,0 -130.33,43 -174.77,129.03 -38.03,73.05 -57.01,154.06 -57.01,243.04 0,7.06 0.11,12.95 0.38,17.66 0.23,4.72 0.59,9.72 1.09,15.02 6.91,86.61 25.93,157.3 57.04,212.11 37.5,65.97 88.61,98.97 153.28,98.97 41.46,0 88.61,-14.5 141.43,-43.49 21.21,-11.83 42.44,-32.84 63.68,-63.02 27.66,-39.03 45.67,-72.78 54.06,-101.16 l 18.51,11.52 -30.34,303.98 c -8.9,-8.27 -17.53,-16.51 -25.93,-24.77 -10.87,-7.04 -24.94,-10.6 -42.2,-10.6 -15.31,0 -32.1,2.36 -50.37,7.08 -35.54,8.83 -67.14,15.17 -94.78,19.01 -27.66,3.83 -57.27,5.73 -88.87,5.73 -58.26,0 -111.8,-8.71 -160.68,-26.06 -48.89,-17.38 -91.83,-44.93 -128.86,-82.63 -27.64,-28.77 -50.11,-61 -67.57,-96.58 v -446.68 c 12.14,-28.45 26.48,-55.38 43.13,-80.66 45.41,-68.94 100.97,-116.65 166.62,-143.17 52.82,-21.21 123.67,-31.81 212.53,-31.81 h 370.25 v 33.52 c -11.84,3.53 -20.85,7.49 -27.03,11.91 -6.17,4.39 -11.73,11.9 -16.64,22.48" /></g></g></svg>